<?xml version="1.0" standalone="no"?>
<!DOCTYPE svg PUBLIC "-//W3C//DTD SVG 20010904//EN"
 "http://www.w3.org/TR/2001/REC-SVG-20010904/DTD/svg10.dtd">
<svg version="1.0" xmlns="http://www.w3.org/2000/svg"
 width="967.000000pt" height="954.000000pt" viewBox="0 0 967.000000 954.000000"
 preserveAspectRatio="xMidYMid meet">

<g transform="translate(0.000000,954.000000) scale(0.100000,-0.100000)"
fill="#000000" stroke="none">
<path d="M4775 8441 l-50 -77 32 -464 c17 -256 32 -471 32 -477 1 -14 81 -19
81 -5 0 4 14 219 31 477 l32 470 -48 70 c-27 39 -51 73 -54 76 -3 3 -29 -28
-56 -70z"/>
<path d="M4601 8237 l-64 -62 47 -320 c26 -176 52 -348 58 -382 l10 -63 39 0
c36 0 39 2 39 28 0 64 -52 809 -58 834 l-7 27 -64 -62z"/>
<path d="M4980 8268 c0 -34 -46 -741 -53 -815 l-5 -43 44 0 c25 0 44 5 44 11
0 6 25 178 56 382 l55 370 -63 64 c-34 35 -66 63 -70 63 -4 0 -8 -15 -8 -32z"/>
<path d="M4425 8100 c-33 -20 -61 -43 -62 -51 -1 -8 30 -153 70 -324 l73 -310
42 -3 c35 -3 42 0 42 14 0 17 -99 692 -103 705 -1 3 -29 -11 -62 -31z"/>
<path d="M5170 8135 c0 -11 -101 -683 -105 -702 -5 -21 -2 -23 40 -23 38 0 45
3 50 23 24 101 145 620 145 622 0 2 -29 21 -65 44 -36 22 -65 38 -65 36z"/>
<path d="M4240 8006 c-30 -13 -54 -27 -54 -32 1 -5 34 -134 75 -286 l74 -278
59 0 c51 0 58 2 54 18 -3 9 -36 149 -73 310 -38 160 -71 292 -74 292 -3 -1
-31 -11 -61 -24z"/>
<path d="M5345 8008 c-60 -256 -135 -582 -135 -590 0 -5 26 -8 57 -6 l57 3 73
270 c40 149 73 277 73 286 0 9 -20 22 -52 35 -29 10 -56 20 -60 22 -4 2 -10
-7 -13 -20z"/>
<path d="M3990 8001 c0 -19 193 -557 203 -567 17 -17 100 -26 94 -10 -3 6 -39
128 -82 271 -42 143 -77 261 -78 262 -8 8 -137 49 -137 44z"/>
<path d="M5598 7982 c-57 -21 -69 -29 -77 -56 -37 -114 -151 -509 -149 -511 6
-6 90 13 97 21 9 10 203 566 199 569 -2 1 -33 -9 -70 -23z"/>
<path d="M3466 7864 c-9 -8 -16 -26 -16 -39 0 -12 -7 -25 -15 -29 -23 -8 -19
-63 5 -76 11 -6 25 -8 30 -5 6 3 10 2 10 -3 0 -5 -11 -14 -25 -20 -29 -14 -33
-45 -10 -98 14 -35 14 -37 -10 -66 -14 -16 -25 -42 -25 -58 l0 -29 29 17 c39
22 81 8 94 -30 23 -71 -76 -162 -178 -162 -58 -1 -91 17 -129 67 -39 53 -12
130 47 130 22 0 24 2 14 18 -12 19 -49 39 -72 39 -10 0 -15 10 -15 30 0 41
-24 96 -48 109 -14 7 -24 6 -40 -5 -24 -16 -39 -2 -17 16 23 19 19 77 -6 90
-11 7 -26 9 -33 7 -7 -3 -20 3 -29 14 -33 38 -97 10 -97 -44 0 -10 -7 -25 -15
-33 -32 -33 -4 -101 36 -91 12 3 19 0 19 -9 0 -8 -8 -14 -18 -14 -47 0 -55
-52 -19 -122 23 -45 23 -47 5 -70 -9 -12 -18 -38 -18 -56 0 -30 1 -32 16 -18
25 26 81 20 100 -9 21 -33 21 -117 0 -150 -40 -60 -119 -105 -187 -105 -39 0
-89 45 -89 80 0 32 39 70 74 70 20 1 19 2 -7 25 -18 16 -40 25 -63 25 -30 0
-34 3 -34 25 0 15 -7 40 -16 57 -14 27 -19 30 -50 25 l-34 -6 17 25 c21 33 5
74 -31 74 -13 0 -29 7 -36 15 -27 32 -80 12 -80 -31 0 -12 -7 -27 -15 -34 -30
-25 -12 -80 27 -80 25 0 23 -13 -4 -25 -30 -13 -34 -48 -12 -97 17 -38 17 -39
-5 -62 -12 -13 -25 -41 -28 -62 -6 -37 -5 -38 13 -23 28 24 51 29 79 19 50
-19 71 -110 39 -171 -16 -32 -100 -79 -142 -79 -30 0 -62 34 -62 68 0 15 -5
44 -11 65 -9 32 -14 38 -34 35 -13 -1 -32 6 -44 16 -27 25 -51 14 -51 -23 0
-21 -6 -30 -21 -34 -16 -4 -20 -12 -17 -30 4 -23 3 -23 -53 -20 -66 4 -81 -12
-50 -56 19 -26 19 -27 0 -50 -27 -33 -25 -100 3 -136 31 -40 93 -65 161 -65
62 0 77 14 25 24 -48 9 -97 42 -109 72 -25 66 32 100 149 89 125 -12 166 -8
219 19 88 45 133 108 133 187 0 43 3 45 40 24 38 -22 135 -19 208 7 103 36
181 119 197 211 4 20 9 37 11 37 3 0 21 -11 42 -24 88 -57 177 -59 283 -6 78
38 123 80 146 136 l17 42 56 -28 c93 -47 131 -53 203 -35 95 24 147 87 147
177 l-1 43 -14 -33 c-38 -87 -100 -131 -183 -132 -48 0 -116 30 -132 59 -28
52 8 121 63 121 l32 0 -25 25 c-14 14 -40 26 -60 28 -32 4 -36 8 -43 44 -11
55 -39 80 -72 65 -29 -13 -31 -10 -9 23 21 33 10 64 -27 72 -16 3 -34 12 -40
19 -15 19 -44 18 -63 -2z m52 -37 c4 -20 -25 -34 -40 -19 -15 15 -1 44 19 40
10 -2 19 -11 21 -21z m62 -21 c0 -21 -21 -31 -30 -15 -5 7 -6 17 -4 21 9 14
34 9 34 -6z m-104 -37 c10 -17 -13 -36 -27 -22 -12 12 -4 33 11 33 5 0 12 -5
16 -11z m78 -24 c17 -25 22 -105 8 -105 -14 0 -49 43 -57 68 -4 13 -4 34 -1
47 7 29 28 24 50 -10z m-540 9 c7 -19 -10 -44 -31 -44 -17 0 -27 24 -19 45 7
20 42 19 50 -1z m72 -53 c-9 -14 -33 -14 -41 -1 -4 6 -1 18 6 26 11 13 14 13
27 0 8 -8 11 -19 8 -25z m563 -2 c6 -18 11 -38 11 -46 0 -18 -55 -75 -64 -66
-3 4 -6 26 -6 49 0 86 37 125 59 63z m-682 -25 c8 -21 -13 -42 -28 -27 -13 13
-5 43 11 43 6 0 13 -7 17 -16z m75 -11 c28 -33 36 -58 29 -101 l-6 -43 -32 33
c-29 31 -39 61 -35 111 1 9 8 17 15 17 8 0 21 -8 29 -17z m477 -25 c18 -17 39
-44 47 -59 l14 -28 -30 11 c-17 5 -37 7 -45 4 -10 -4 -22 8 -36 35 -35 70 -6
92 50 37z m-344 -79 c6 -35 4 -44 -11 -52 -10 -6 -28 -21 -41 -35 l-23 -25 -1
39 c-2 75 3 109 18 133 l16 25 18 -22 c9 -12 20 -41 24 -63z m-177 -15 c23
-16 82 -91 82 -103 0 -4 -24 -4 -52 -1 -48 5 -55 8 -70 40 -35 69 -14 102 40
64z m-428 -104 c0 -27 -19 -35 -38 -17 -12 13 -13 19 -3 31 16 19 41 10 41
-14z m56 -35 c-5 -14 -9 -15 -21 -5 -12 10 -13 16 -4 27 15 18 34 1 25 -22z
m-96 -29 c0 -8 -5 -18 -11 -22 -14 -8 -33 11 -25 25 10 16 36 13 36 -3z m69
-12 c14 -18 21 -41 21 -71 l0 -44 -30 22 c-31 23 -46 65 -35 99 8 27 19 25 44
-6z m108 -82 c4 -33 2 -43 -11 -48 -9 -4 -23 -18 -30 -33 l-14 -26 -7 28 c-10
37 -1 113 15 132 19 23 40 -1 47 -53z m-125 -42 c21 -23 38 -45 38 -50 0 -6
-18 -10 -40 -10 -43 0 -62 19 -75 73 -11 43 29 36 77 -13z m-282 -250 c6 -12
10 -32 8 -46 l-3 -25 -22 21 c-26 24 -31 70 -8 70 8 0 19 -9 25 -20z m70 -72
c0 -26 -5 -41 -16 -45 -31 -12 -44 40 -23 94 10 27 11 27 25 9 8 -11 14 -37
14 -58z m-84 -10 l27 -33 -28 -3 c-31 -4 -55 18 -55 50 0 28 25 21 56 -14z
m-137 -37 c11 -15 18 -31 14 -35 -9 -8 -53 34 -53 51 0 22 17 15 39 -16z m51
14 c36 -18 39 -35 7 -35 -25 0 -47 17 -47 37 0 17 5 16 40 -2z"/>
<path d="M6131 7866 c-6 -7 -25 -16 -41 -19 -37 -8 -51 -48 -26 -76 18 -20 10
-37 -10 -20 -31 25 -62 -8 -78 -84 -4 -15 -11 -25 -16 -22 -16 10 -74 -13 -88
-35 -11 -18 -10 -20 13 -20 50 0 88 -68 66 -116 -14 -32 -83 -63 -139 -64 -24
0 -61 9 -83 20 -39 20 -99 91 -99 117 0 7 -5 13 -11 13 -17 0 0 -79 27 -127
31 -54 93 -85 173 -86 54 0 104 17 202 70 4 2 9 -10 12 -27 15 -72 154 -172
261 -186 56 -8 127 9 175 41 44 31 51 31 51 3 0 -36 44 -120 81 -157 73 -74
237 -113 321 -78 l37 16 6 -37 c4 -20 9 -50 12 -66 7 -37 67 -97 126 -125 40
-19 61 -22 130 -20 194 7 197 6 222 -23 15 -17 21 -35 18 -48 -8 -30 -68 -78
-108 -86 -55 -10 -52 -24 7 -24 120 0 187 44 195 126 4 43 2 52 -21 75 -26 26
-26 26 -6 44 11 10 20 29 20 42 0 23 -2 24 -61 20 -47 -3 -59 -1 -55 9 7 19
-4 44 -19 44 -8 0 -15 14 -17 33 -4 38 -40 51 -57 19 -7 -13 -18 -18 -34 -15
-28 6 -47 -29 -47 -87 0 -30 -6 -43 -26 -59 -33 -26 -57 -26 -109 -2 -52 24
-75 50 -86 101 -8 34 -6 49 8 79 25 49 63 67 103 47 30 -14 30 -14 30 15 0 18
-9 39 -24 54 l-24 24 19 38 c31 61 23 94 -26 105 -21 5 -17 8 30 23 25 7 30
36 12 67 -9 17 -17 36 -17 43 0 20 -28 45 -50 45 -10 0 -25 -7 -34 -15 -8 -8
-23 -15 -33 -15 -42 0 -57 -48 -26 -82 15 -17 15 -18 -15 -12 -41 8 -57 -6
-71 -61 -11 -42 -14 -45 -44 -45 -20 0 -42 -9 -57 -22 l-24 -22 32 -8 c34 -9
62 -41 62 -71 0 -10 -14 -32 -31 -49 -28 -28 -34 -30 -79 -25 -147 18 -233
150 -165 254 19 28 69 31 97 6 17 -15 18 -15 18 14 0 17 -9 42 -20 56 -20 25
-20 28 -4 59 41 80 37 138 -11 138 -15 0 -24 4 -20 10 3 6 14 10 24 10 23 0
51 31 51 57 0 11 -9 28 -20 38 -11 10 -20 28 -20 41 0 50 -65 73 -94 33 -8
-12 -19 -18 -25 -15 -15 10 -49 -11 -56 -34 -4 -12 0 -31 9 -45 23 -35 20 -48
-7 -30 -22 14 -26 14 -50 -5 -18 -14 -29 -37 -37 -73 -9 -48 -14 -55 -45 -66
-19 -7 -39 -20 -45 -30 -8 -16 -5 -18 17 -18 32 0 63 -35 63 -72 0 -14 -9 -40
-20 -58 -42 -69 -115 -89 -198 -53 -56 24 -98 66 -108 107 -15 60 43 102 98
70 27 -15 28 -15 28 4 0 27 -26 75 -44 82 -13 5 -12 13 5 52 23 53 19 90 -11
100 -11 3 -20 10 -20 15 0 5 6 7 14 4 17 -7 46 22 46 46 0 10 -7 25 -15 34 -8
8 -15 23 -15 34 0 22 -30 52 -52 52 -9 0 -21 -6 -27 -14z m52 -30 c9 -22 -19
-42 -37 -26 -19 15 -10 40 14 40 10 0 20 -6 23 -14z m-73 -30 c0 -21 -21 -31
-30 -15 -5 7 -6 17 -4 21 9 14 34 9 34 -6z m42 -83 c-1 -29 -8 -44 -29 -60
l-28 -23 -7 32 c-6 33 2 59 30 91 21 24 36 7 34 -40z m58 37 c0 -11 -7 -20
-15 -20 -8 0 -15 9 -15 20 0 11 7 20 15 20 8 0 15 -9 15 -20z m480 -5 c10 -12
10 -18 0 -30 -25 -30 -61 -7 -46 30 3 8 12 15 19 15 8 0 20 -7 27 -15z m-625
-86 c4 -21 4 -52 0 -68 l-6 -30 -31 35 c-26 29 -30 40 -25 70 3 20 12 43 18
51 12 13 14 13 25 -2 7 -9 16 -34 19 -56z m542 55 c8 -21 -13 -42 -28 -27 -13
13 -5 43 11 43 6 0 13 -7 17 -16z m120 -50 c8 -21 -13 -42 -28 -27 -13 13 -5
43 11 43 6 0 13 -7 17 -16z m-67 -39 c0 -36 -6 -51 -32 -81 l-33 -37 -6 29
c-12 54 -9 72 17 103 37 45 54 41 54 -14z m-460 7 c0 -39 -26 -72 -56 -72 -14
0 -34 -5 -45 -10 -10 -6 -19 -8 -19 -4 0 15 43 75 67 94 36 28 53 25 53 -8z
m345 -32 c15 -30 22 -150 8 -150 -5 1 -23 14 -42 30 -30 26 -33 33 -28 65 6
34 31 85 42 85 2 0 11 -13 20 -30z m175 -67 c0 -10 -9 -37 -19 -59 -18 -40
-21 -42 -70 -45 -28 -2 -51 -3 -51 -1 0 15 36 65 65 91 40 34 75 41 75 14z
m409 -92 c14 -26 -12 -50 -34 -31 -11 9 -12 17 -4 31 5 10 14 19 19 19 5 0 14
-9 19 -19z m-73 -46 c-5 -14 -9 -15 -21 -5 -12 10 -13 16 -4 27 15 18 34 1 25
-22z m44 -58 c0 -35 -6 -49 -30 -72 l-30 -29 0 26 c0 15 -2 33 -6 41 -5 15 40
77 57 77 5 0 9 -19 9 -43z m63 36 c9 -9 -13 -34 -24 -27 -14 8 -11 34 4 34 8
0 17 -3 20 -7z m-153 -85 c6 -22 8 -57 5 -79 l-7 -38 -29 33 c-33 38 -38 79
-13 114 20 29 31 21 44 -30z m140 -38 c0 -12 -7 -34 -15 -49 -12 -24 -22 -30
-59 -32 -41 -4 -43 -3 -34 16 18 35 71 85 90 85 11 0 18 -7 18 -20z m242 -281
c-1 -13 -11 -33 -22 -44 -20 -19 -20 -19 -20 8 0 36 18 70 33 64 7 -2 11 -15
9 -28z m-57 -80 c-5 -20 -13 -29 -26 -29 -16 0 -19 7 -19 41 0 22 5 50 12 62
11 21 12 21 25 -12 8 -19 11 -46 8 -62z m95 31 c0 -5 -5 -21 -12 -35 -8 -18
-19 -25 -40 -25 -35 0 -35 7 -1 42 26 28 53 37 53 18z m58 -66 c-9 -9 -27 -14
-44 -12 l-29 3 35 22 c38 25 67 15 38 -13z m62 23 c0 -17 -44 -59 -53 -51 -3
3 0 16 6 28 20 35 47 48 47 23z"/>
<path d="M4190 7374 c0 -21 75 -254 82 -254 4 0 132 29 282 65 l275 64 281
-66 c155 -36 283 -63 286 -60 3 2 18 51 33 108 15 57 31 114 35 127 l7 22
-640 0 c-353 0 -641 -3 -641 -6z"/>
<path d="M3353 7017 l-732 -312 22 -22 22 -23 720 306 c396 168 724 310 728
314 12 11 -1 50 -16 49 -7 0 -342 -141 -744 -312z"/>
<path d="M3640 7299 c-9 -16 -8 -26 5 -45 19 -29 36 -30 60 -4 15 17 16 24 7
45 -15 32 -56 34 -72 4z"/>
<path d="M5951 7306 c-18 -21 -6 -63 20 -71 29 -10 51 13 47 49 -2 25 -8 32
-29 34 -14 2 -31 -4 -38 -12z"/>
<path d="M3415 6950 c-390 -165 -714 -301 -720 -303 -5 -3 19 -35 55 -71 l65
-66 665 281 c366 155 675 285 687 289 l22 9 -27 80 c-14 45 -29 81 -32 80 -3
0 -324 -135 -715 -299z m633 178 c14 -14 16 -44 3 -52 -19 -12 -41 7 -41 35 0
30 17 38 38 17z m-98 -73 c0 -21 -25 -36 -38 -23 -13 13 -16 51 -5 61 8 9 43
-22 43 -38z m-125 -25 c20 -23 13 -53 -12 -48 -12 2 -19 14 -21 36 -4 37 7 41
33 12z m-110 -50 c17 -19 17 -22 3 -36 -21 -22 -38 -10 -38 27 0 34 10 37 35
9z m-104 -52 c7 -14 7 -23 -1 -33 -19 -23 -40 -6 -40 31 0 26 3 32 15 28 9 -4
20 -15 26 -26z m-117 -39 c17 -26 11 -49 -14 -49 -21 0 -28 15 -22 47 5 29 17
29 36 2z m-116 -41 c15 -15 16 -45 1 -54 -17 -10 -39 19 -33 44 7 25 15 27 32
10z m-98 -79 c0 -25 -19 -34 -37 -17 -9 10 -12 24 -7 42 6 26 7 26 25 10 11
-9 19 -25 19 -35z m-110 -46 c0 -18 -29 -28 -42 -15 -6 6 -8 22 -4 37 7 26 8
27 26 10 11 -10 20 -24 20 -32z m-120 -18 c17 -20 8 -50 -15 -50 -20 0 -31 25
-21 51 7 18 20 18 36 -1z m-100 -75 c0 -22 -24 -32 -39 -17 -12 12 -15 50 -4
60 10 10 43 -23 43 -43z"/>
<path d="M5496 7172 c-14 -42 -23 -79 -18 -83 4 -4 313 -136 687 -293 l679
-287 65 65 c36 36 63 67 61 69 -4 4 -1372 577 -1427 598 -20 7 -24 2 -47 -69z
m141 -89 c-32 -32 -51 15 -20 49 17 19 18 19 26 -7 7 -20 5 -31 -6 -42z m123
-23 c0 -22 -20 -40 -36 -33 -19 7 -18 32 3 55 18 20 33 10 33 -22z m108 -51
c-4 -28 -35 -38 -44 -14 -8 19 26 59 39 46 5 -5 7 -19 5 -32z m110 -41 c-2
-25 -8 -33 -23 -33 -23 0 -32 30 -15 50 22 27 42 18 38 -17z m112 -42 c0 -31
-22 -50 -38 -34 -16 16 -15 28 4 49 20 22 34 16 34 -15z m108 -48 c-2 -22 -9
-34 -21 -36 -25 -5 -32 25 -12 48 26 29 37 25 33 -12z m112 -47 c0 -37 -17
-49 -38 -27 -14 14 -14 17 3 36 25 28 35 25 35 -9z m101 -84 c-8 -8 -16 -6
-28 6 -16 16 -15 18 8 43 l24 26 3 -32 c2 -18 -1 -37 -7 -43z m121 0 c6 -32
-1 -47 -22 -47 -25 0 -31 23 -14 49 19 27 31 27 36 -2z m112 -49 c6 -25 -16
-54 -33 -44 -15 9 -14 39 1 54 17 17 25 15 32 -10z m103 -85 c-32 -32 -51 15
-20 49 17 19 18 19 26 -7 7 -20 5 -31 -6 -42z"/>
<path d="M3181 7136 c-20 -24 -10 -70 17 -74 46 -7 69 40 36 72 -19 20 -38 20
-53 2z"/>
<path d="M6426 7137 c-38 -27 2 -95 42 -71 24 16 28 55 6 71 -10 7 -21 13 -24
13 -3 0 -14 -6 -24 -13z"/>
<path d="M4595 7044 c-868 -320 -1327 -492 -1549 -584 l-129 -53 7 -156 c33
-742 230 -1758 448 -2306 203 -512 572 -1047 1058 -1536 164 -165 380 -359
399 -359 18 0 242 201 391 350 270 272 489 538 685 835 315 479 464 842 614
1505 76 331 151 785 186 1121 18 180 38 527 30 539 -13 20 -204 97 -782 313
-362 136 -1056 392 -1113 410 -8 3 -118 -33 -245 -79z m652 -163 c696 -254
1036 -382 1280 -483 l126 -51 -6 -152 c-26 -614 -210 -1592 -398 -2107 -162
-444 -435 -890 -813 -1328 -107 -125 -407 -427 -524 -529 l-83 -72 -72 62
c-124 108 -469 459 -579 589 -295 351 -520 700 -675 1048 -205 459 -386 1237
-468 2012 -16 155 -35 461 -29 471 11 18 504 211 1109 433 214 79 458 169 540
199 83 31 157 56 167 56 9 1 200 -66 425 -148z"/>
<path d="M4520 6834 c-817 -301 -1370 -512 -1404 -537 -15 -11 -16 -31 -6
-197 31 -560 155 -1260 312 -1775 181 -592 556 -1171 1104 -1705 88 -85 192
-181 232 -214 l72 -58 87 73 c125 104 431 413 549 554 385 463 618 869 763
1330 169 542 321 1431 321 1887 l0 107 -228 90 c-431 170 -1466 551 -1496 550
-12 0 -149 -47 -306 -105z m599 -65 c583 -214 1164 -434 1320 -500 l54 -23 -7
-135 c-32 -640 -206 -1524 -393 -1995 -149 -378 -371 -739 -667 -1085 -105
-124 -383 -409 -509 -523 l-88 -79 -61 53 c-263 227 -574 572 -788 873 -290
410 -456 783 -589 1328 -122 495 -221 1161 -221 1479 l0 86 78 33 c138 57 547
213 1022 388 256 95 481 178 500 186 19 8 44 14 54 14 11 1 144 -45 295 -100z"/>
<path d="M4656 6300 c-58 -50 -106 -95 -106 -100 0 -6 48 -10 115 -10 135 0
135 0 135 107 0 63 -10 93 -31 93 -4 0 -55 -41 -113 -90z"/>
<path d="M4867 6384 c-12 -13 -8 -169 5 -182 18 -18 228 -17 228 2 0 14 -191
179 -213 184 -7 1 -16 0 -20 -4z"/>
<path d="M4398 6281 c-82 -42 -148 -79 -148 -83 0 -14 195 -9 212 5 14 11 95
116 112 145 15 25 -32 8 -176 -67z"/>
<path d="M5080 6354 c0 -9 91 -127 112 -146 16 -15 39 -18 120 -18 66 0 97 3
93 10 -7 12 -299 160 -315 160 -5 0 -10 -3 -10 -6z"/>
<path d="M4140 6259 c-63 -28 -119 -55 -125 -60 -5 -5 14 -9 46 -9 45 0 64 6
100 30 59 40 116 89 104 89 -5 0 -62 -22 -125 -50z"/>
<path d="M5455 6250 c75 -58 79 -60 138 -60 34 0 57 4 52 8 -14 12 -243 112
-256 112 -7 0 23 -27 66 -60z"/>
<path d="M3842 6083 c-56 -49 -262 -277 -262 -290 0 -10 30 -13 128 -13 110 0
131 3 144 18 28 31 178 282 178 297 0 12 -16 15 -78 15 -70 0 -81 -3 -110 -27z"/>
<path d="M4139 6100 c-22 -13 -199 -282 -199 -303 0 -15 16 -17 174 -17 96 0
181 3 190 6 18 7 111 287 102 310 -4 11 -31 14 -128 14 -68 0 -130 -5 -139
-10z"/>
<path d="M4470 6053 c-35 -90 -78 -246 -73 -260 4 -10 51 -13 194 -13 176 0
189 1 199 19 5 11 10 77 10 146 0 69 -5 135 -10 146 -10 17 -23 19 -155 19
l-144 0 -21 -57z"/>
<path d="M4872 6098 c-17 -17 -17 -289 0 -306 8 -8 67 -12 201 -12 l190 0 -6
44 c-7 50 -74 255 -89 274 -14 17 -279 17 -296 0z"/>
<path d="M5250 6089 c0 -26 79 -280 92 -296 8 -10 59 -13 194 -13 158 0 184 2
184 15 0 18 -176 284 -199 302 -11 8 -59 12 -143 13 -123 0 -128 -1 -128 -21z"/>
<path d="M5620 6102 c0 -13 181 -306 193 -314 7 -4 69 -8 140 -8 95 0 127 3
127 13 -1 15 -254 287 -284 304 -23 14 -176 18 -176 5z"/>
<path d="M3516 5678 c-20 -32 -80 -273 -73 -292 5 -14 30 -16 157 -16 147 0
151 1 160 23 12 27 50 241 50 279 l0 28 -140 0 c-134 0 -140 -1 -154 -22z"/>
<path d="M3891 5682 c-5 -9 -21 -78 -35 -151 -19 -99 -23 -138 -14 -148 8 -10
58 -13 214 -13 203 0 205 0 213 23 12 28 34 284 26 297 -4 6 -86 10 -200 10
-175 0 -195 -2 -204 -18z"/>
<path d="M4372 5673 c-17 -46 -33 -275 -20 -290 8 -10 59 -13 219 -13 196 0
209 1 219 19 5 11 10 77 10 146 0 69 -5 135 -10 146 -10 18 -23 19 -209 19
l-199 0 -10 -27z"/>
<path d="M4872 5688 c-17 -17 -17 -289 0 -306 9 -9 72 -12 220 -12 187 0 209
2 215 17 10 26 -14 282 -27 298 -16 20 -389 22 -408 3z"/>
<path d="M5364 5685 c-10 -25 18 -294 31 -305 8 -7 87 -9 216 -8 l204 3 3 23
c6 38 -39 265 -56 285 -13 15 -37 17 -204 17 -158 0 -190 -2 -194 -15z"/>
<path d="M5847 5688 c-6 -18 43 -290 55 -305 8 -9 52 -13 159 -13 132 0 148 2
153 18 7 20 -58 278 -75 298 -16 19 -284 20 -292 2z"/>
<path d="M3458 5289 c-23 -13 -23 -32 6 -147 13 -53 27 -109 30 -124 12 -53
26 -58 172 -58 103 0 136 3 140 13 3 8 -6 78 -19 157 -18 108 -29 147 -43 157
-22 16 -259 18 -286 2z"/>
<path d="M3845 5284 c-10 -11 -14 -26 -10 -47 36 -205 45 -250 56 -263 16 -19
381 -21 397 -1 7 8 6 57 -2 156 -10 121 -15 145 -31 157 -14 11 -62 14 -206
14 -159 0 -190 -2 -204 -16z"/>
<path d="M4368 5293 c-27 -7 -29 -29 -15 -176 9 -99 17 -141 28 -148 7 -5 100
-9 206 -9 180 0 193 1 203 19 5 11 10 78 10 150 0 181 13 171 -227 170 -104
-1 -196 -3 -205 -6z"/>
<path d="M4882 5284 c-21 -14 -22 -22 -22 -158 0 -97 4 -146 12 -154 8 -8 68
-12 204 -12 162 0 194 2 205 16 7 9 17 70 24 152 15 184 29 172 -213 172 -154
0 -192 -3 -210 -16z"/>
<path d="M5402 5283 c-18 -15 -22 -37 -31 -154 -6 -75 -9 -144 -5 -153 9 -24
374 -24 398 0 9 8 16 16 16 17 0 1 9 54 20 117 25 145 25 167 1 180 -12 6 -95
10 -199 10 -157 0 -182 -2 -200 -17z"/>
<path d="M5914 5285 c-18 -12 -25 -39 -44 -155 -12 -77 -19 -147 -16 -155 4
-12 32 -15 150 -15 l144 0 38 156 c38 152 38 156 19 170 -27 20 -262 20 -291
-1z"/>
<path d="M3573 4874 c-3 -9 6 -28 24 -47 16 -18 81 -88 145 -157 l115 -125 82
3 c58 3 81 7 81 17 0 7 -39 79 -87 160 -59 100 -94 150 -110 156 -13 5 -74 9
-134 9 -90 0 -111 -3 -116 -16z"/>
<path d="M3937 4883 c-4 -3 -7 -12 -7 -19 0 -21 186 -300 205 -308 9 -3 73 -6
141 -6 l124 0 0 24 c0 49 -78 280 -100 298 -19 16 -45 18 -189 18 -92 0 -171
-3 -174 -7z"/>
<path d="M4400 4875 c-11 -13 -7 -35 18 -124 18 -60 41 -129 51 -155 l20 -46
145 0 c133 0 146 2 156 19 5 11 10 77 10 148 0 183 13 173 -209 173 -148 0
-181 -3 -191 -15z"/>
<path d="M4876 4874 c-13 -13 -16 -42 -16 -158 0 -97 4 -146 12 -154 8 -8 57
-12 155 -12 l143 0 15 38 c9 20 30 82 46 137 16 55 32 107 35 116 2 9 -3 24
-11 33 -24 24 -356 24 -379 0z"/>
<path d="M5357 4877 c-19 -14 -110 -294 -102 -314 6 -18 253 -17 276 0 17 13
185 266 196 294 3 8 0 19 -8 24 -23 14 -342 11 -362 -4z"/>
<path d="M5824 4875 c-24 -16 -184 -285 -184 -309 0 -11 18 -15 82 -18 l81 -3
144 158 c79 87 142 164 140 170 -6 19 -236 22 -263 2z"/>
<path d="M3992 4468 c4 -12 288 -145 288 -134 0 7 -139 113 -170 128 -39 21
-124 25 -118 6z"/>
<path d="M4232 4468 c5 -15 337 -192 345 -184 10 9 -119 177 -144 187 -39 14
-206 12 -201 -3z"/>
<path d="M4550 4462 c0 -21 201 -202 223 -202 21 0 27 22 27 104 0 111 -6 116
-141 116 -99 0 -109 -2 -109 -18z"/>
<path d="M4876 4464 c-23 -23 -19 -197 5 -202 20 -4 224 175 224 196 0 25
-205 31 -229 6z"/>
<path d="M5191 4442 c-44 -47 -116 -151 -109 -158 8 -7 338 169 338 181 0 6
-41 11 -96 13 l-96 3 -37 -39z"/>
<path d="M5548 4466 c-27 -14 -168 -125 -168 -132 0 -11 284 122 288 135 5 16
-87 14 -120 -3z"/>
<path d="M4571 3948 c-59 -132 -301 -690 -301 -695 0 -2 25 -3 56 -1 l55 3
110 255 c61 140 114 258 118 262 3 4 54 -83 111 -194 73 -139 118 -214 147
-243 142 -143 372 -119 488 49 47 69 46 76 -18 76 -48 0 -56 -3 -88 -36 -93
-99 -230 -98 -320 3 -21 24 -93 153 -175 316 -76 152 -142 277 -145 277 -3 0
-21 -33 -38 -72z"/>
<path d="M4994 3939 c-54 -15 -127 -72 -166 -128 l-38 -54 26 -46 c39 -68 40
-68 69 -8 43 91 112 137 207 137 64 0 129 -30 166 -76 25 -31 32 -34 80 -34
64 0 65 8 14 81 -41 59 -112 112 -170 129 -44 12 -145 12 -188 -1z"/>
<path d="M2730 6936 c-28 -35 11 -93 48 -70 35 22 22 84 -18 84 -10 0 -23 -7
-30 -14z"/>
<path d="M6870 6936 c-28 -35 11 -93 48 -70 35 22 22 84 -18 84 -10 0 -23 -7
-30 -14z"/>
<path d="M2340 6720 c-21 -40 12 -80 53 -64 40 15 26 84 -18 84 -14 0 -29 -8
-35 -20z"/>
<path d="M7250 6726 c-28 -35 11 -93 48 -70 35 22 22 84 -18 84 -10 0 -23 -7
-30 -14z"/>
<path d="M1905 6173 c-148 -53 -243 -156 -281 -303 -19 -73 -15 -216 7 -308
l13 -54 23 86 c34 130 59 179 118 235 40 38 67 54 120 70 122 38 221 22 322
-53 l59 -43 104 48 c58 26 106 53 108 59 6 16 -62 103 -124 159 -30 27 -84 65
-121 83 -61 30 -74 32 -182 35 -92 3 -126 0 -166 -14z"/>
<path d="M7455 6173 c-73 -26 -133 -64 -189 -119 -42 -42 -120 -144 -113 -150
1 -1 51 -24 111 -51 l109 -50 63 47 c94 72 194 88 316 50 123 -38 192 -125
239 -305 l24 -90 17 90 c9 50 17 116 18 147 1 181 -90 332 -245 409 -65 32
-76 34 -185 37 -90 2 -126 -1 -165 -15z"/>
<path d="M1955 5863 c-11 -2 -39 -11 -61 -19 -46 -16 -54 -31 -54 -104 0 -33
-3 -41 -10 -30 -5 8 -10 32 -10 54 0 34 -2 37 -16 25 -12 -10 -15 -28 -12 -76
2 -53 1 -61 -9 -46 -7 9 -13 30 -13 46 0 18 -4 26 -11 21 -7 -4 -10 -29 -7
-67 4 -59 4 -59 -13 -38 -18 22 -18 22 -33 -31 -8 -29 -27 -102 -42 -163 -15
-61 -43 -139 -62 -175 -34 -64 -34 -66 -27 -155 3 -49 15 -150 26 -223 10 -73
19 -168 19 -211 0 -67 -4 -86 -31 -140 -41 -83 -158 -204 -313 -325 -155 -121
-196 -181 -196 -283 0 -26 -10 -40 -57 -80 -93 -78 -82 -74 -152 -53 -34 11
-75 20 -90 20 -43 0 -123 -27 -160 -54 l-33 -25 46 2 c32 1 50 -3 56 -13 21
-31 -18 -228 -61 -312 l-21 -41 29 7 c15 4 42 21 58 37 17 16 34 29 37 29 23
0 18 -150 -9 -250 l-6 -25 23 20 c39 35 63 76 81 139 l17 61 12 -30 c7 -17 10
-62 8 -105 -3 -62 -10 -89 -41 -154 -20 -43 -35 -81 -33 -83 8 -8 70 29 104
60 38 36 39 28 11 -56 -27 -81 -81 -180 -131 -240 -22 -27 -38 -51 -35 -54 3
-2 30 2 61 11 71 21 156 98 211 191 36 62 39 65 48 44 12 -31 1 -151 -23 -263
-11 -49 -18 -91 -15 -94 2 -2 18 17 35 44 100 158 113 372 36 629 l-15 50 39
-43 c22 -24 54 -72 71 -105 l31 -62 -6 44 c-10 65 -60 177 -131 296 -35 58
-58 105 -51 105 6 0 35 -16 64 -35 28 -20 52 -31 52 -26 0 17 -72 133 -106
171 l-33 37 45 44 c37 36 46 41 54 29 5 -8 10 -18 10 -21 0 -26 105 -141 186
-205 110 -88 130 -120 120 -198 -3 -27 -23 -85 -46 -130 -64 -130 -68 -120
131 -323 166 -170 171 -176 164 -209 -8 -46 8 -72 51 -80 46 -9 52 -27 20 -65
-31 -36 -32 -45 -7 -83 24 -36 69 -66 100 -66 23 0 24 1 17 68 -16 179 -24
231 -38 250 -8 12 -90 101 -181 197 -92 96 -167 183 -167 193 0 10 23 39 51
66 152 144 319 549 319 776 0 40 4 62 13 64 69 20 116 46 164 89 64 59 137
164 178 259 26 59 32 65 84 90 36 17 92 60 150 114 l92 87 43 -21 c84 -40 256
-223 258 -275 4 -58 -2 -78 -26 -87 -29 -11 -40 -39 -27 -72 11 -30 4 -44 -32
-57 -23 -9 -27 -16 -27 -49 0 -42 42 -118 81 -145 36 -26 49 -6 49 74 0 61 5
79 40 149 22 44 40 93 40 108 0 45 -62 158 -138 252 -93 115 -222 224 -374
316 -113 68 -134 85 -181 148 -30 39 -85 105 -122 146 -37 41 -71 85 -76 98
-5 13 -9 61 -9 108 0 80 1 85 25 96 19 8 28 8 40 -2 32 -26 58 -95 63 -162 4
-58 7 -68 23 -68 14 0 19 7 19 25 0 35 26 42 55 15 26 -25 62 -24 79 2 7 12 5
29 -11 65 -17 36 -24 77 -28 164 l-7 116 149 65 c81 36 187 82 235 103 49 21
86 40 84 43 -4 3 -395 -68 -462 -84 -17 -4 -25 2 -41 33 -11 21 -34 48 -52 60
-50 34 -157 51 -226 36z"/>
<path d="M7546 5859 c-50 -12 -101 -51 -122 -92 -9 -18 -17 -33 -18 -34 -1 -1
-108 18 -236 42 -129 25 -241 45 -250 45 -8 0 91 -47 220 -104 l235 -103 0
-129 c0 -106 -4 -135 -18 -163 -37 -68 7 -107 67 -60 21 17 29 19 41 9 8 -7
15 -21 15 -32 0 -13 6 -18 18 -16 13 2 18 17 23 68 10 107 53 180 98 165 28
-8 34 -40 29 -135 l-5 -79 -70 -78 c-38 -43 -96 -112 -127 -153 -50 -65 -73
-84 -170 -143 -241 -148 -403 -304 -495 -481 -39 -74 -39 -108 2 -198 25 -54
35 -94 40 -153 4 -43 11 -83 17 -89 26 -26 120 97 120 160 0 25 -6 33 -32 45
-31 13 -33 17 -30 59 3 38 0 47 -22 65 -17 13 -29 35 -33 59 -5 31 0 45 31 90
49 71 171 188 224 215 l43 22 94 -84 c52 -46 119 -97 150 -113 53 -27 58 -34
100 -119 84 -168 203 -292 299 -311 l33 -6 7 -76 c22 -265 196 -675 330 -777
19 -14 36 -35 39 -45 6 -22 -31 -77 -88 -130 -20 -19 -91 -92 -156 -162 -118
-126 -119 -128 -119 -175 0 -26 -7 -86 -15 -132 -8 -47 -13 -93 -9 -103 16
-53 134 26 134 90 0 21 -7 35 -20 42 -25 13 -26 49 -2 56 72 23 72 24 72 75
l0 48 155 163 c85 90 162 169 170 176 24 21 18 60 -27 156 -44 96 -58 171 -40
217 6 15 50 59 99 99 106 87 144 128 185 198 16 28 33 52 37 52 4 0 24 -18 45
-39 l39 -40 -48 -63 c-43 -57 -101 -158 -91 -158 2 0 27 16 56 35 49 33 70 42
70 30 0 -3 -27 -51 -61 -107 -71 -117 -116 -217 -125 -279 l-6 -44 27 53 c15
28 46 73 70 100 l44 47 -25 -80 c-37 -117 -51 -264 -36 -370 7 -48 21 -108 32
-134 20 -51 80 -155 86 -149 2 2 -8 58 -21 123 -24 116 -31 217 -19 249 5 12
16 0 43 -45 67 -113 156 -187 245 -203 l38 -7 -23 31 c-99 132 -149 227 -164
315 -6 35 -5 38 6 24 21 -25 100 -79 115 -79 9 0 2 23 -21 71 -56 117 -69 233
-31 284 12 17 14 14 20 -26 8 -53 58 -144 88 -160 17 -9 20 -9 15 4 -26 67
-34 233 -13 254 4 5 14 -1 22 -11 18 -26 65 -56 86 -56 14 0 13 6 -7 49 -30
61 -54 154 -62 236 -6 64 -5 65 22 75 20 7 38 8 59 1 l31 -11 -35 31 c-36 30
-113 59 -160 59 -25 0 -109 -20 -141 -34 -12 -5 -37 10 -87 53 -65 56 -70 63
-76 112 -14 106 -42 145 -186 257 -184 143 -271 234 -327 342 -24 47 -27 63
-26 139 1 47 11 148 22 224 12 76 21 179 21 229 0 83 -3 95 -29 137 -18 29
-40 93 -60 176 -18 72 -37 148 -42 169 l-11 39 -24 -29 -24 -29 10 28 c12 35
13 104 1 111 -5 3 -11 -12 -15 -34 -10 -64 -24 -55 -19 13 4 48 2 65 -10 75
-12 11 -16 5 -22 -40 -6 -35 -10 -44 -12 -28 -2 14 -6 44 -9 67 -4 37 -9 43
-47 58 -51 20 -167 28 -221 14z"/>
<path d="M2650 5013 c-30 -9 -94 -15 -190 -16 -97 -2 -153 -7 -168 -15 -23
-13 -21 -15 65 -69 48 -30 98 -64 110 -75 21 -19 23 -20 72 -3 29 9 71 35 100
61 39 35 50 41 55 28 10 -25 7 -139 -5 -194 -10 -48 -9 -53 13 -77 12 -14 36
-34 52 -46 l29 -20 -8 209 c-4 116 -12 215 -17 222 -13 15 -51 14 -108 -5z"/>
<path d="M6896 5014 c-4 -9 -9 -110 -12 -223 l-6 -206 51 51 c48 46 51 52 41
78 -12 34 -13 213 -1 221 5 3 16 -3 23 -13 22 -30 82 -71 127 -87 43 -15 43
-15 90 18 25 19 75 51 110 72 58 34 62 39 46 51 -26 19 -98 28 -179 21 -49 -4
-93 -1 -141 10 -116 26 -141 27 -149 7z"/>
<path d="M2587 4563 c-4 -3 -7 -22 -7 -41 0 -31 -2 -34 -22 -27 -54 16 -65 16
-83 -1 -20 -20 -17 -86 6 -163 14 -47 27 -56 63 -47 18 4 29 18 41 56 19 56
64 110 92 110 10 0 24 5 31 12 10 10 2 23 -35 60 -44 45 -70 57 -86 41z"/>
<path d="M6981 4519 c-35 -40 -41 -53 -30 -60 8 -5 19 -9 26 -9 25 0 72 -53
89 -98 23 -63 31 -72 64 -72 25 0 30 6 45 49 23 70 24 146 3 168 -15 15 -22
15 -51 5 -45 -16 -47 -16 -47 12 0 72 -38 74 -99 5z"/>
<path d="M1736 3485 c-35 -80 -97 -184 -148 -249 -21 -27 -38 -57 -38 -67 0
-36 59 -86 169 -143 60 -31 149 -86 198 -122 l88 -65 0 -47 c0 -41 3 -48 28
-60 37 -18 42 -34 27 -87 -12 -43 -11 -47 14 -83 14 -21 40 -49 58 -62 30 -22
32 -22 45 -5 7 11 13 44 13 77 0 46 -5 67 -26 98 -20 29 -29 59 -33 108 -8 81
-12 89 -65 112 -61 26 -114 68 -235 185 l-108 105 13 67 c13 69 36 294 31 299
-2 2 -16 -26 -31 -61z"/>
<path d="M7895 3465 c4 -49 13 -134 22 -189 l15 -98 -29 -30 c-74 -80 -241
-222 -287 -245 -77 -38 -86 -49 -86 -103 0 -54 -15 -103 -43 -142 -26 -35 -29
-141 -5 -164 14 -14 19 -12 53 18 61 53 74 81 62 132 -12 53 -6 73 28 86 22 8
25 15 25 59 l0 49 88 65 c48 36 125 84 172 107 113 57 167 95 186 131 15 30
15 31 -44 117 -74 110 -109 169 -139 240 l-24 57 6 -90z"/>
<path d="M6023 1837 c-40 -17 -73 -35 -73 -40 0 -5 14 -25 30 -44 l30 -34 0
-157 0 -158 -87 0 c-122 1 -181 -21 -254 -94 -47 -47 -61 -68 -78 -124 -25
-80 -27 -153 -6 -223 52 -175 238 -246 385 -146 l35 23 5 -37 c6 -45 14 -46
130 -16 62 16 76 23 78 41 3 21 0 22 -35 16 -71 -11 -68 -32 -68 528 0 326 -3
498 -10 497 -5 -1 -43 -15 -82 -32z m-83 -492 c15 -8 38 -27 49 -41 20 -25 21
-39 21 -215 0 -214 -1 -218 -79 -239 -85 -23 -178 33 -221 131 -43 102 -21
267 43 327 55 51 130 66 187 37z"/>
<path d="M2723 1780 c-18 -16 -33 -34 -33 -39 0 -6 -47 -144 -104 -308 -206
-591 -211 -603 -281 -603 -28 0 -35 -4 -35 -20 0 -19 7 -20 146 -20 133 0 145
1 142 18 -2 12 -16 19 -43 22 -35 4 -40 9 -43 32 -4 30 62 260 84 296 14 21
21 22 119 22 109 0 115 3 99 44 -5 13 -23 16 -93 16 -48 0 -90 3 -94 6 -6 6
109 354 123 368 4 4 24 -43 44 -105 60 -195 183 -603 190 -631 7 -31 -2 -39
-54 -48 -22 -3 -36 -12 -38 -23 -3 -16 11 -17 167 -17 164 0 171 1 171 20 0
16 -7 20 -30 20 -18 0 -41 10 -60 28 -35 31 -41 48 -215 605 -60 191 -114 347
-120 347 -5 0 -25 -14 -42 -30z"/>
<path d="M4205 1711 c-89 -25 -160 -68 -220 -132 -87 -95 -125 -196 -125 -334
0 -297 219 -491 532 -472 99 6 200 32 222 56 14 16 56 141 56 167 0 28 -37 14
-51 -18 -17 -41 -84 -115 -121 -134 -79 -41 -205 -36 -298 11 -94 47 -176 164
-201 285 -17 83 -7 252 20 323 30 76 113 167 182 196 162 70 349 13 396 -120
12 -34 23 -49 36 -49 15 0 17 6 13 33 -3 17 -8 62 -11 99 -6 64 -8 67 -38 77
-110 35 -294 40 -392 12z"/>
<path d="M3415 1442 c-20 -31 -45 -53 -73 -67 -50 -24 -52 -48 -4 -53 l32 -3
1 -212 c1 -231 8 -278 50 -310 55 -41 158 -32 219 19 39 33 31 60 -10 39 -56
-29 -109 -15 -135 35 -12 23 -15 70 -15 229 l0 200 93 3 92 3 0 30 0 30 -92 3
-93 3 0 49 c0 66 -24 67 -65 2z"/>
<path d="M7078 1391 c-38 -20 -68 -41 -68 -48 0 -7 11 -23 25 -37 l25 -25 0
-203 c0 -222 -6 -248 -56 -248 -17 0 -24 -5 -24 -20 0 -19 7 -20 145 -20 138
0 145 1 145 20 0 17 -7 20 -39 20 -64 0 -66 8 -66 229 0 141 4 202 13 218 18
32 57 39 98 19 19 -9 43 -16 54 -16 49 0 70 85 28 114 -35 24 -61 19 -126 -24
-33 -22 -62 -40 -66 -40 -3 0 -6 23 -6 50 0 28 -3 49 -7 49 -5 -1 -38 -18 -75
-38z"/>
<path d="M5065 1401 c-59 -16 -85 -31 -128 -70 -131 -121 -139 -358 -15 -481
53 -54 111 -75 203 -75 70 1 87 4 134 30 108 59 156 159 149 309 -5 97 -21
142 -74 205 -54 65 -186 105 -269 82z m126 -63 c21 -14 45 -46 64 -83 28 -57
30 -67 30 -180 0 -106 -3 -126 -24 -168 -28 -57 -70 -87 -124 -87 -109 0 -179
109 -180 280 -1 111 21 176 74 224 48 44 106 49 160 14z"/>
<path d="M6550 1401 c-50 -16 -87 -41 -124 -82 -58 -64 -79 -120 -84 -224 -5
-106 7 -156 51 -221 95 -142 335 -131 413 18 21 40 -1 45 -41 9 -43 -37 -70
-45 -136 -39 -110 11 -189 112 -192 244 l-2 69 185 5 185 5 0 56 c0 67 -31
115 -92 144 -42 21 -125 29 -163 16z m125 -65 c13 -13 27 -36 31 -51 11 -46
-10 -56 -134 -62 -127 -7 -139 0 -105 59 42 72 159 103 208 54z"/>
</g>
</svg>
